# xmcd
#
# Track frame offsets: 
#        150
#        12290
#        24904
#        39263
#        52719
#        63514
#        77148
#        87346
#        99345
#        119229
#        131988
#        143414
#
# Disc length: 2061 seconds
#
# Revision: 0
# Processed by: cddbd v1.5.2PL0 Copyright (c) Steve Scherf et al.
# Submitted via: ExactAudioCopy v1.0b1
#
DISCID=94080b0c
DTITLE=The Country Gentlemen - Remembrances and Forecasts
DYEAR=1974
DGENRE=Bluegrass
TTITLE0=Willow Creek Dam
TTITLE1=Remembrance Of You
TTITLE2=Irish Spring
TTITLE3=Billy Mcghee
TTITLE4=Home In Louisiana
TTITLE5=King Of Spades
TTITLE6=The Little Grave
TTITLE7=Delta Queen
TTITLE8=Heartaches
TTITLE9=Welcome To New York
TTITLE10=Lord Protect My Soul
TTITLE11=Circuit Rider
EXTD=
EXTT0=
EXTT1=
EXTT2=
EXTT3=
EXTT4=
EXTT5=
EXTT6=
EXTT7=
EXTT8=
EXTT9=
EXTT10=
EXTT11=
PLAYORDER=
